Normalized EMG Linear Envelopes
nRows=230
nColumns=4

endheader
time	 med_gas_r	  soleus_r	 tib_ant_r	
3.16028	  0.008991	  0.022085	  0.005994	
3.19355	  0.008951	  0.022214	  0.005846	
3.22681	  0.008897	  0.022028	  0.005814	
3.26008	  0.008840	  0.021647	  0.005930	
3.29335	  0.008756	  0.021176	  0.006173	
3.32661	  0.008627	  0.020635	  0.006480	
3.35988	  0.008487	  0.020029	  0.006749	
3.39315	  0.008346	  0.019366	  0.006915	
3.42641	  0.008217	  0.018698	  0.006989	
3.45968	  0.008122	  0.018106	  0.006993	
3.49294	  0.008090	  0.017650	  0.006934	
3.52621	  0.008131	  0.017320	  0.006834	
3.55948	  0.008241	  0.017055	  0.006721	
3.59274	  0.008429	  0.016836	  0.006623	
3.62601	  0.008704	  0.016743	  0.006569	
3.65927	  0.009058	  0.016833	  0.006545	
3.69254	  0.009476	  0.017061	  0.006522	
3.72581	  0.009932	  0.017366	  0.006498	
3.75907	  0.010347	  0.017682	  0.006458	
3.79234	  0.010565	  0.017998	  0.006387	
3.8256	  0.010510	  0.018270	  0.006287	
3.85887	  0.010253	  0.018401	  0.006153	
3.89214	  0.009900	  0.018298	  0.005997	
3.9254	  0.009556	  0.018073	  0.005876	
3.95867	  0.009286	  0.017909	  0.005839	
3.99194	  0.009095	  0.017915	  0.005893	
4.0252	  0.008945	  0.018112	  0.006020	
4.05847	  0.008827	  0.018471	  0.006184	
4.09173	  0.008789	  0.018910	  0.006347	
4.125	  0.008858	  0.019289	  0.006463	
4.15827	  0.009028	  0.019605	  0.006474	
4.19153	  0.009273	  0.019903	  0.006378	
4.2248	  0.009555	  0.020141	  0.006231	
4.25806	  0.009807	  0.020244	  0.006081	
4.29133	  0.009935	  0.020144	  0.005970	
4.3246	  0.009847	  0.019790	  0.005905	
4.35786	  0.009604	  0.019266	  0.005879	
4.39113	  0.009322	  0.018741	  0.005857	
4.4244	  0.009060	  0.018325	  0.005831	
4.45766	  0.008868	  0.018057	  0.005813	
4.49093	  0.008784	  0.017946	  0.005822	
4.52419	  0.008802	  0.017948	  0.005853	
4.55746	  0.008922	  0.018047	  0.005906	
4.59073	  0.009133	  0.018214	  0.005988	
4.62399	  0.009421	  0.018390	  0.006093	
4.65726	  0.009766	  0.018523	  0.006210	
4.69052	  0.010114	  0.018632	  0.006323	
4.72379	  0.010393	  0.018737	  0.006450	
4.75706	  0.010541	  0.018878	  0.006652	
4.79032	  0.010543	  0.019144	  0.006993	
4.82359	  0.010429	  0.019539	  0.007512	
4.85685	  0.010256	  0.019983	  0.008177	
4.89012	  0.010032	  0.020378	  0.008881	
4.92339	  0.009727	  0.020556	  0.009453	
4.95665	  0.009336	  0.020375	  0.009678	
4.98992	  0.008914	  0.019933	  0.009333	
5.02319	  0.008526	  0.019407	  0.008262	
5.05645	  0.008242	  0.018945	  0.006531	
5.08972	  0.008096	  0.018567	  0.004277	
5.12298	  0.008091	  0.018245	  0.001659	
5.15625	  0.008210	  0.017971	 -0.001101	
5.18952	  0.008434	  0.017821	 -0.003635	
5.22278	  0.008746	  0.017901	 -0.005401	
5.25605	  0.009157	  0.018386	 -0.005598	
5.28931	  0.009700	  0.019578	 -0.003098	
5.32258	  0.010453	  0.021795	  0.003535	
5.35585	  0.011579	  0.025514	  0.015985	
5.38911	  0.013309	  0.031302	  0.036000	
5.42238	  0.015835	  0.039773	  0.065025	
5.45565	  0.019236	  0.051579	  0.103600	
5.48891	  0.023398	  0.066826	  0.150509	
5.52218	  0.027963	  0.084595	  0.201995	
5.55544	  0.032442	  0.103346	  0.253158	
5.58871	  0.036486	  0.121856	  0.300723	
5.62198	  0.039845	  0.139141	  0.343808	
5.65524	  0.042537	  0.154021	  0.382278	
5.68851	  0.044725	  0.166191	  0.416545	
5.72177	  0.046744	  0.176597	  0.446464	
5.75504	  0.048993	  0.186995	  0.470206	
5.78831	  0.051656	  0.197956	  0.488431	
5.82157	  0.054684	  0.208970	  0.501954	
5.85484	  0.057959	  0.220180	  0.511105	
5.8881	  0.061335	  0.232048	  0.516347	
5.92137	  0.064596	  0.244166	  0.518770	
5.95464	  0.067485	  0.255116	  0.517817	
5.9879	  0.069595	  0.262236	  0.514063	
6.02117	  0.070802	  0.263652	  0.509168	
6.05444	  0.071293	  0.260059	  0.504804	
6.0877	  0.071609	  0.253962	  0.502754	
6.12097	  0.071800	  0.245836	  0.504011	
6.15423	  0.071515	  0.235482	  0.508319	
6.1875	  0.071063	  0.225545	  0.516476	
6.22077	  0.070857	  0.218713	  0.528385	
6.25403	  0.071146	  0.216274	  0.541305	
6.2873	  0.071842	  0.217875	  0.553050	
6.32056	  0.072645	  0.221968	  0.561348	
6.35383	  0.073269	  0.226161	  0.565189	
6.3871	  0.073777	  0.229720	  0.565187	
6.42036	  0.074133	  0.233072	  0.562536	
6.45363	  0.074231	  0.236447	  0.559115	
6.4869	  0.074183	  0.239939	  0.557167	
6.52016	  0.074204	  0.243895	  0.558655	
6.55343	  0.074381	  0.247618	  0.561235	
6.58669	  0.074609	  0.249810	  0.561725	
6.61996	  0.074526	  0.249618	  0.558765	
6.65323	  0.073608	  0.245791	  0.552570	
6.68649	  0.071798	  0.238697	  0.543848	
6.71976	  0.069638	  0.230532	  0.533317	
6.75302	  0.067811	  0.222998	  0.521691	
6.78629	  0.066716	  0.216875	  0.510577	
6.81956	  0.066527	  0.212972	  0.500633	
6.85282	  0.067115	  0.212433	  0.491953	
6.88609	  0.068310	  0.215485	  0.485283	
6.91935	  0.070016	  0.221491	  0.480689	
6.95262	  0.072102	  0.229661	  0.477895	
6.98589	  0.074081	  0.238113	  0.476959	
7.01915	  0.075559	  0.245379	  0.478925	
7.05242	  0.076313	  0.250766	  0.486543	
7.08569	  0.076809	  0.254694	  0.500345	
7.11895	  0.077515	  0.258230	  0.517175	
7.15222	  0.078489	  0.261705	  0.534104	
7.18548	  0.079783	  0.266032	  0.550504	
7.21875	  0.081143	  0.271376	  0.565628	
7.25202	  0.082072	  0.275969	  0.576516	
7.28528	  0.082182	  0.277671	  0.579493	
7.31855	  0.081568	  0.276486	  0.574386	
7.35181	  0.080689	  0.274719	  0.563735	
7.38508	  0.080196	  0.275804	  0.551387	
7.41835	  0.080472	  0.281106	  0.541205	
7.45161	  0.081527	  0.290036	  0.536995	
7.48488	  0.082904	  0.300186	  0.542585	
7.51815	  0.083925	  0.308385	  0.558625	
7.55141	  0.084264	  0.312510	  0.583599	
7.58468	  0.083885	  0.311690	  0.616095	
7.61794	  0.083016	  0.307059	  0.654027	
7.65121	  0.081555	  0.297787	  0.694560	
7.68448	  0.079455	  0.283299	  0.735741	
7.71774	  0.077051	  0.265461	  0.773953	
7.75101	  0.074625	  0.246990	  0.797350	
7.78427	  0.072373	  0.230987	  0.798409	
7.81754	  0.070419	  0.218506	  0.784174	
7.85081	  0.068868	  0.209601	  0.764465	
7.88407	  0.067928	  0.204629	  0.741137	
7.91734	  0.067668	  0.204218	  0.709622	
7.9506	  0.067963	  0.208307	  0.670232	
7.98387	  0.068723	  0.216984	  0.628935	
8.01714	  0.070118	  0.230642	  0.591527	
8.0504	  0.071984	  0.247441	  0.560461	
8.08367	  0.073950	  0.264305	  0.535731	
8.11694	  0.075976	  0.279788	  0.517431	
8.1502	  0.077792	  0.292716	  0.506264	
8.18347	  0.079001	  0.301288	  0.503387	
8.21673	  0.079419	  0.305388	  0.509847	
8.25	  0.078843	  0.304928	  0.523463	
8.28327	  0.077380	  0.299398	  0.539017	
8.31653	  0.075506	  0.290346	  0.551916	
8.3498	  0.073631	  0.280108	  0.561061	
8.38306	  0.072194	  0.271594	  0.566473	
8.41633	  0.071426	  0.265949	  0.569179	
8.4496	  0.071531	  0.262301	  0.569732	
8.48286	  0.072468	  0.259121	  0.570778	
8.51613	  0.074013	  0.256212	  0.575573	
8.5494	  0.076052	  0.253676	  0.585884	
8.58266	  0.078281	  0.250856	  0.602169	
8.61593	  0.079975	  0.246651	  0.622697	
8.64919	  0.080362	  0.239449	  0.643208	
8.68246	  0.079349	  0.229030	  0.660384	
8.71573	  0.077543	  0.217506	  0.673007	
8.74899	  0.075450	  0.206811	  0.679973	
8.78226	  0.073667	  0.198214	  0.681020	
8.81552	  0.072547	  0.192085	  0.674703	
8.84879	  0.072224	  0.189857	  0.662784	
8.88206	  0.072483	  0.192275	  0.647616	
8.91532	  0.072726	  0.198609	  0.630338	
8.94859	  0.072955	  0.208858	  0.612267	
8.98185	  0.073159	  0.221818	  0.598949	
9.01512	  0.073223	  0.235393	  0.592364	
9.04839	  0.073080	  0.247578	  0.591814	
9.08165	  0.072761	  0.257788	  0.595573	
9.11492	  0.072000	  0.264089	  0.599158	
9.14819	  0.070860	  0.265029	  0.600459	
9.18145	  0.069500	  0.259183	  0.599222	
9.21472	  0.067938	  0.246717	  0.596021	
9.24798	  0.066380	  0.230934	  0.590370	
9.28125	  0.065141	  0.215535	  0.581801	
9.31452	  0.064285	  0.202674	  0.570637	
9.34778	  0.063826	  0.193925	  0.559099	
9.38105	  0.063696	  0.190201	  0.548052	
9.41431	  0.063864	  0.190927	  0.540459	
9.44758	  0.064850	  0.197279	  0.540120	
9.48085	  0.067084	  0.210111	  0.547079	
9.51411	  0.070254	  0.227261	  0.558305	
9.54738	  0.073474	  0.244249	  0.568955	
9.58065	  0.075787	  0.256457	  0.575069	
9.61391	  0.076950	  0.262934	  0.576184	
9.64718	  0.076637	  0.263394	  0.570850	
9.68044	  0.074754	  0.258280	  0.559958	
9.71371	  0.072058	  0.250353	  0.546357	
9.74698	  0.069878	  0.245744	  0.532083	
9.78024	  0.069066	  0.247879	  0.519215	
9.81351	  0.069666	  0.255757	  0.510996	
9.84677	  0.071277	  0.266195	  0.509424	
9.88004	  0.073502	  0.276836	  0.513888	
9.91331	  0.075788	  0.285771	  0.521114	
9.94657	  0.077401	  0.291037	  0.526555	
9.97984	  0.077674	  0.289949	  0.525328	
10.0131	  0.076666	  0.281574	  0.518475	
10.0464	  0.074511	  0.267149	  0.512790	
10.0796	  0.071334	  0.249296	  0.510822	
10.1129	  0.067610	  0.230887	  0.511433	
10.1462	  0.064061	  0.215307	  0.513273	
10.1794	  0.060891	  0.203803	  0.514627	
10.2127	  0.057880	  0.194896	  0.509731	
10.246	  0.054738	  0.186976	  0.493880	
10.2792	  0.051362	  0.178855	  0.466735	
10.3125	  0.047829	  0.169552	  0.431040	
10.3458	  0.044218	  0.157681	  0.390442	
10.379	  0.040907	  0.142328	  0.346744	
10.4123	  0.038537	  0.124135	  0.301372	
10.4456	  0.037645	  0.104907	  0.256046	
10.4788	  0.038341	  0.086146	  0.210375	
10.5121	  0.040345	  0.068855	  0.166224	
10.5454	  0.042919	  0.054153	  0.128631	
10.5786	  0.044939	  0.042888	  0.100354	
10.6119	  0.045620	  0.035300	  0.081887	
10.6452	  0.044574	  0.030921	  0.072132	
10.6784	  0.041552	  0.028809	  0.068873	
10.7117	  0.036719	  0.028060	  0.069250	
10.745	  0.030850	  0.028412	  0.070283	
10.7782	  0.024915	  0.029671	  0.070135	
